<svg xmlns="http://www.w3.org/2000/svg" xmlns:xlink="http://www.w3.org/1999/xlink" width="500" zoomAndPan="magnify" viewBox="0 0 375 374.999991" height="500" preserveAspectRatio="xMidYMid meet" version="1.0"><defs><g/><clipPath id="141573ebf7"><path d="M 125.628906 124 L 186 124 L 186 201.621094 L 125.628906 201.621094 Z M 125.628906 124 " clip-rule="nonzero"/></clipPath><clipPath id="4b7f41c1c4"><path d="M 189 124 L 249.378906 124 L 249.378906 201.621094 L 189 201.621094 Z M 189 124 " clip-rule="nonzero"/></clipPath></defs><g clip-path="url(#141573ebf7)"><path fill="#25366c" d="M 174.714844 143.933594 C 174.707031 143.941406 174.703125 143.945312 174.699219 143.953125 C 173 146.070312 169.902344 146.410156 167.785156 144.707031 C 165.667969 143.007812 165.328125 139.910156 167.03125 137.792969 C 168.730469 135.675781 171.828125 135.339844 173.945312 137.039062 C 175.058594 137.933594 175.675781 139.214844 175.765625 140.539062 C 179.136719 142.023438 182.257812 143.824219 185.132812 145.816406 L 185.132812 134.761719 C 185.132812 134.761719 171.03125 121.367188 144.300781 124.664062 L 141.597656 133.285156 C 145.152344 133.234375 148.8125 133.484375 152.503906 134.152344 C 153.316406 133.105469 154.546875 132.390625 155.96875 132.273438 C 158.675781 132.046875 161.054688 134.058594 161.277344 136.765625 C 161.503906 139.472656 159.488281 141.851562 156.78125 142.074219 C 154.074219 142.296875 151.699219 140.285156 151.476562 137.578125 C 151.472656 137.570312 151.476562 137.5625 151.472656 137.554688 C 147.75 136.914062 144.058594 136.722656 140.480469 136.84375 L 138.472656 143.253906 C 148.265625 143.105469 161.542969 144.503906 173.464844 151.175781 C 174.078125 150.820312 174.777344 150.582031 175.535156 150.519531 C 178.242188 150.296875 180.617188 152.308594 180.84375 155.015625 C 181.066406 157.722656 179.054688 160.097656 176.347656 160.320312 C 173.640625 160.546875 171.265625 158.535156 171.039062 155.828125 C 170.988281 155.1875 171.0625 154.566406 171.238281 153.992188 C 159.628906 147.660156 146.632812 146.542969 137.359375 146.8125 L 134.300781 156.566406 C 141.605469 156.199219 149.964844 156.753906 158.214844 159.398438 C 159.113281 158.429688 160.394531 157.816406 161.820312 157.816406 C 164.535156 157.816406 166.738281 160.019531 166.738281 162.734375 C 166.738281 165.453125 164.535156 167.652344 161.820312 167.652344 C 159.105469 167.652344 156.902344 165.453125 156.902344 162.734375 C 156.902344 162.71875 156.90625 162.703125 156.90625 162.683594 C 148.699219 160.097656 140.351562 159.6875 133.167969 160.171875 L 130.449219 168.851562 C 132.824219 168.765625 135.476562 168.753906 138.335938 168.878906 C 147.347656 169.28125 159.898438 171.191406 171.230469 177.667969 C 172 177.171875 172.914062 176.878906 173.894531 176.878906 C 176.613281 176.878906 178.8125 179.082031 178.8125 181.800781 C 178.8125 184.515625 176.613281 186.71875 173.894531 186.71875 C 171.179688 186.71875 168.976562 184.515625 168.976562 181.800781 C 168.976562 181.363281 169.039062 180.945312 169.144531 180.542969 C 158.53125 174.582031 146.761719 172.800781 138.273438 172.414062 C 134.980469 172.265625 131.945312 172.308594 129.320312 172.441406 L 125.6875 184.035156 C 125.6875 184.035156 162.980469 184.015625 185.132812 201.328125 L 185.132812 150.171875 C 181.992188 147.800781 178.519531 145.652344 174.714844 143.933594 " fill-opacity="1" fill-rule="nonzero"/></g><path fill="#25366c" d="M 164.214844 162.734375 C 164.214844 161.414062 163.144531 160.339844 161.820312 160.339844 C 160.496094 160.339844 159.425781 161.414062 159.425781 162.734375 C 159.425781 164.058594 160.496094 165.128906 161.820312 165.128906 C 163.144531 165.128906 164.214844 164.058594 164.214844 162.734375 " fill-opacity="1" fill-rule="nonzero"/><path fill="#25366c" d="M 176.289062 181.800781 C 176.289062 180.476562 175.21875 179.402344 173.894531 179.402344 C 172.570312 179.402344 171.5 180.476562 171.5 181.800781 C 171.5 183.121094 172.570312 184.191406 173.894531 184.191406 C 175.21875 184.191406 176.289062 183.121094 176.289062 181.800781 " fill-opacity="1" fill-rule="nonzero"/><path fill="#25366c" d="M 176.140625 157.808594 C 177.457031 157.699219 178.4375 156.539062 178.328125 155.222656 C 178.21875 153.90625 177.0625 152.925781 175.742188 153.035156 C 174.425781 153.144531 173.445312 154.300781 173.554688 155.621094 C 173.664062 156.9375 174.820312 157.917969 176.140625 157.808594 " fill-opacity="1" fill-rule="nonzero"/><path fill="#25366c" d="M 168.996094 139.375 C 168.167969 140.40625 168.332031 141.914062 169.367188 142.742188 C 170.398438 143.570312 171.902344 143.40625 172.734375 142.375 C 173.5625 141.34375 173.394531 139.832031 172.363281 139.007812 C 171.332031 138.175781 169.824219 138.34375 168.996094 139.375 " fill-opacity="1" fill-rule="nonzero"/><path fill="#25366c" d="M 156.574219 139.558594 C 157.894531 139.449219 158.871094 138.292969 158.761719 136.972656 C 158.652344 135.65625 157.496094 134.675781 156.179688 134.785156 C 154.859375 134.894531 153.878906 136.054688 153.988281 137.371094 C 154.097656 138.6875 155.257812 139.667969 156.574219 139.558594 " fill-opacity="1" fill-rule="nonzero"/><g clip-path="url(#4b7f41c1c4)"><path fill="#51ade5" d="M 189.867188 134.761719 C 189.867188 134.761719 203.964844 121.367188 230.695312 124.664062 L 249.308594 184.035156 C 249.308594 184.035156 212.011719 184.015625 189.867188 201.328125 L 189.867188 134.761719 " fill-opacity="1" fill-rule="nonzero"/></g><g fill="#25366c" fill-opacity="1"><g transform="translate(56.94423, 238.671196)"><g><path d="M 1.828125 0 L 1.828125 -21.09375 L 6.296875 -21.09375 L 6.296875 -11.796875 L 6.5625 -11.796875 L 14.15625 -21.09375 L 19.5 -21.09375 L 11.671875 -11.640625 L 19.59375 0 L 14.265625 0 L 8.484375 -8.671875 L 6.296875 -6 L 6.296875 0 Z M 1.828125 0 "/></g></g></g><g fill="#25366c" fill-opacity="1"><g transform="translate(76.933393, 238.671196)"><g><path d="M 21.21875 -10.546875 C 21.21875 -8.242188 20.78125 -6.285156 19.90625 -4.671875 C 19.039062 -3.054688 17.863281 -1.828125 16.375 -0.984375 C 14.882812 -0.140625 13.207031 0.28125 11.34375 0.28125 C 9.46875 0.28125 7.785156 -0.140625 6.296875 -0.984375 C 4.804688 -1.835938 3.628906 -3.070312 2.765625 -4.6875 C 1.898438 -6.300781 1.46875 -8.253906 1.46875 -10.546875 C 1.46875 -12.847656 1.898438 -14.800781 2.765625 -16.40625 C 3.628906 -18.019531 4.804688 -19.25 6.296875 -20.09375 C 7.785156 -20.945312 9.46875 -21.375 11.34375 -21.375 C 13.207031 -21.375 14.882812 -20.945312 16.375 -20.09375 C 17.863281 -19.25 19.039062 -18.019531 19.90625 -16.40625 C 20.78125 -14.800781 21.21875 -12.847656 21.21875 -10.546875 Z M 16.6875 -10.546875 C 16.6875 -12.785156 16.195312 -14.492188 15.21875 -15.671875 C 14.25 -16.847656 12.957031 -17.4375 11.34375 -17.4375 C 9.71875 -17.4375 8.414062 -16.847656 7.4375 -15.671875 C 6.46875 -14.492188 5.984375 -12.785156 5.984375 -10.546875 C 5.984375 -8.316406 6.46875 -6.609375 7.4375 -5.421875 C 8.414062 -4.242188 9.71875 -3.65625 11.34375 -3.65625 C 12.957031 -3.65625 14.25 -4.242188 15.21875 -5.421875 C 16.195312 -6.609375 16.6875 -8.316406 16.6875 -10.546875 Z M 16.6875 -10.546875 "/></g></g></g><g fill="#25366c" fill-opacity="1"><g transform="translate(99.598753, 238.671196)"><g><path d="M 19.46875 -21.09375 L 19.46875 0 L 15.625 0 L 6.453125 -13.28125 L 6.296875 -13.28125 L 6.296875 0 L 1.828125 0 L 1.828125 -21.09375 L 5.75 -21.09375 L 14.84375 -7.828125 L 15.03125 -7.828125 L 15.03125 -21.09375 Z M 19.46875 -21.09375 "/></g></g></g><g fill="#25366c" fill-opacity="1"><g transform="translate(120.905429, 238.671196)"><g><path d="M 21.21875 -10.546875 C 21.21875 -8.242188 20.78125 -6.285156 19.90625 -4.671875 C 19.039062 -3.054688 17.863281 -1.828125 16.375 -0.984375 C 14.882812 -0.140625 13.207031 0.28125 11.34375 0.28125 C 9.46875 0.28125 7.785156 -0.140625 6.296875 -0.984375 C 4.804688 -1.835938 3.628906 -3.070312 2.765625 -4.6875 C 1.898438 -6.300781 1.46875 -8.253906 1.46875 -10.546875 C 1.46875 -12.847656 1.898438 -14.800781 2.765625 -16.40625 C 3.628906 -18.019531 4.804688 -19.25 6.296875 -20.09375 C 7.785156 -20.945312 9.46875 -21.375 11.34375 -21.375 C 13.207031 -21.375 14.882812 -20.945312 16.375 -20.09375 C 17.863281 -19.25 19.039062 -18.019531 19.90625 -16.40625 C 20.78125 -14.800781 21.21875 -12.847656 21.21875 -10.546875 Z M 16.6875 -10.546875 C 16.6875 -12.785156 16.195312 -14.492188 15.21875 -15.671875 C 14.25 -16.847656 12.957031 -17.4375 11.34375 -17.4375 C 9.71875 -17.4375 8.414062 -16.847656 7.4375 -15.671875 C 6.46875 -14.492188 5.984375 -12.785156 5.984375 -10.546875 C 5.984375 -8.316406 6.46875 -6.609375 7.4375 -5.421875 C 8.414062 -4.242188 9.71875 -3.65625 11.34375 -3.65625 C 12.957031 -3.65625 14.25 -4.242188 15.21875 -5.421875 C 16.195312 -6.609375 16.6875 -8.316406 16.6875 -10.546875 Z M 16.6875 -10.546875 "/></g></g></g><g fill="#25366c" fill-opacity="1"><g transform="translate(143.570789, 238.671196)"><g><path d="M 1.828125 0 L 1.828125 -21.09375 L 6.296875 -21.09375 L 6.296875 -12.390625 L 15.34375 -12.390625 L 15.34375 -21.09375 L 19.796875 -21.09375 L 19.796875 0 L 15.34375 0 L 15.34375 -8.71875 L 6.296875 -8.71875 L 6.296875 0 Z M 1.828125 0 "/></g></g></g><g fill="#25366c" fill-opacity="1"><g transform="translate(165.196549, 238.671196)"><g><path d="M 5.46875 0 L 0.6875 0 L 7.96875 -21.09375 L 13.71875 -21.09375 L 20.984375 0 L 16.203125 0 L 14.640625 -4.8125 L 7.03125 -4.8125 Z M 8.171875 -8.296875 L 13.515625 -8.296875 L 10.921875 -16.265625 L 10.765625 -16.265625 Z M 8.171875 -8.296875 "/></g></g></g><g fill="#25366c" fill-opacity="1"><g transform="translate(186.873773, 238.671196)"><g/></g></g><g fill="#25366c" fill-opacity="1"><g transform="translate(193.59516, 238.671196)"><g><path d="M 1.828125 0 L 1.828125 -21.09375 L 6.296875 -21.09375 L 6.296875 -3.671875 L 15.328125 -3.671875 L 15.328125 0 Z M 1.828125 0 "/></g></g></g><g fill="#25366c" fill-opacity="1"><g transform="translate(210.043496, 238.671196)"><g><path d="M 6.296875 -21.09375 L 6.296875 0 L 1.828125 0 L 1.828125 -21.09375 Z M 6.296875 -21.09375 "/></g></g></g><g fill="#25366c" fill-opacity="1"><g transform="translate(218.175031, 238.671196)"><g><path d="M 1.828125 0 L 1.828125 -21.09375 L 10.28125 -21.09375 C 12.601562 -21.09375 14.347656 -20.582031 15.515625 -19.5625 C 16.691406 -18.550781 17.28125 -17.257812 17.28125 -15.6875 C 17.28125 -14.4375 16.921875 -13.429688 16.203125 -12.671875 C 15.484375 -11.910156 14.570312 -11.40625 13.46875 -11.15625 L 13.46875 -10.953125 C 14.269531 -10.910156 15.019531 -10.679688 15.71875 -10.265625 C 16.425781 -9.847656 17 -9.265625 17.4375 -8.515625 C 17.882812 -7.765625 18.109375 -6.867188 18.109375 -5.828125 C 18.109375 -4.710938 17.832031 -3.710938 17.28125 -2.828125 C 16.726562 -1.953125 15.910156 -1.257812 14.828125 -0.75 C 13.753906 -0.25 12.425781 0 10.84375 0 Z M 6.296875 -3.640625 L 9.921875 -3.640625 C 11.171875 -3.640625 12.078125 -3.878906 12.640625 -4.359375 C 13.210938 -4.847656 13.5 -5.484375 13.5 -6.265625 C 13.5 -7.140625 13.1875 -7.851562 12.5625 -8.40625 C 11.945312 -8.96875 11.101562 -9.25 10.03125 -9.25 L 6.296875 -9.25 Z M 6.296875 -12.265625 L 9.59375 -12.265625 C 10.507812 -12.265625 11.269531 -12.503906 11.875 -12.984375 C 12.476562 -13.460938 12.78125 -14.113281 12.78125 -14.9375 C 12.78125 -15.695312 12.507812 -16.3125 11.96875 -16.78125 C 11.425781 -17.25 10.664062 -17.484375 9.6875 -17.484375 L 6.296875 -17.484375 Z M 6.296875 -12.265625 "/></g></g></g><g fill="#25366c" fill-opacity="1"><g transform="translate(237.330451, 238.671196)"><g><path d="M 1.828125 0 L 1.828125 -21.09375 L 10.15625 -21.09375 C 12.550781 -21.09375 14.410156 -20.46875 15.734375 -19.21875 C 17.054688 -17.96875 17.71875 -16.296875 17.71875 -14.203125 C 17.71875 -12.753906 17.394531 -11.519531 16.75 -10.5 C 16.101562 -9.476562 15.179688 -8.710938 13.984375 -8.203125 L 18.46875 0 L 13.546875 0 L 9.546875 -7.46875 L 6.296875 -7.46875 L 6.296875 0 Z M 6.296875 -11.0625 L 9.3125 -11.0625 C 11.851562 -11.0625 13.125 -12.109375 13.125 -14.203125 C 13.125 -16.359375 11.847656 -17.4375 9.296875 -17.4375 L 6.296875 -17.4375 Z M 6.296875 -11.0625 "/></g></g></g><g fill="#25366c" fill-opacity="1"><g transform="translate(256.352069, 238.671196)"><g><path d="M 5.46875 0 L 0.6875 0 L 7.96875 -21.09375 L 13.71875 -21.09375 L 20.984375 0 L 16.203125 0 L 14.640625 -4.8125 L 7.03125 -4.8125 Z M 8.171875 -8.296875 L 13.515625 -8.296875 L 10.921875 -16.265625 L 10.765625 -16.265625 Z M 8.171875 -8.296875 "/></g></g></g><g fill="#25366c" fill-opacity="1"><g transform="translate(278.029293, 238.671196)"><g><path d="M 1.828125 0 L 1.828125 -21.09375 L 10.15625 -21.09375 C 12.550781 -21.09375 14.410156 -20.46875 15.734375 -19.21875 C 17.054688 -17.96875 17.71875 -16.296875 17.71875 -14.203125 C 17.71875 -12.753906 17.394531 -11.519531 16.75 -10.5 C 16.101562 -9.476562 15.179688 -8.710938 13.984375 -8.203125 L 18.46875 0 L 13.546875 0 L 9.546875 -7.46875 L 6.296875 -7.46875 L 6.296875 0 Z M 6.296875 -11.0625 L 9.3125 -11.0625 C 11.851562 -11.0625 13.125 -12.109375 13.125 -14.203125 C 13.125 -16.359375 11.847656 -17.4375 9.296875 -17.4375 L 6.296875 -17.4375 Z M 6.296875 -11.0625 "/></g></g></g><g fill="#25366c" fill-opacity="1"><g transform="translate(297.050898, 238.671196)"><g><path d="M 0.59375 -21.09375 L 5.59375 -21.09375 L 10.40625 -12 L 10.609375 -12 L 15.421875 -21.09375 L 20.40625 -21.09375 L 12.71875 -7.453125 L 12.71875 0 L 8.296875 0 L 8.296875 -7.453125 Z M 0.59375 -21.09375 "/></g></g></g><g fill="#737373" fill-opacity="1"><g transform="translate(116.194921, 256.822424)"><g><path d="M 3.859375 0 L 0.765625 0 L 0.765625 -8.734375 L 3.890625 -8.734375 C 4.765625 -8.734375 5.519531 -8.554688 6.15625 -8.203125 C 6.789062 -7.859375 7.28125 -7.359375 7.625 -6.703125 C 7.96875 -6.054688 8.140625 -5.28125 8.140625 -4.375 C 8.140625 -3.46875 7.96875 -2.6875 7.625 -2.03125 C 7.28125 -1.375 6.785156 -0.867188 6.140625 -0.515625 C 5.503906 -0.171875 4.742188 0 3.859375 0 Z M 2.609375 -1.578125 L 3.78125 -1.578125 C 4.601562 -1.578125 5.226562 -1.800781 5.65625 -2.25 C 6.082031 -2.695312 6.296875 -3.40625 6.296875 -4.375 C 6.296875 -5.34375 6.082031 -6.046875 5.65625 -6.484375 C 5.226562 -6.929688 4.601562 -7.15625 3.78125 -7.15625 L 2.609375 -7.15625 Z M 2.609375 -1.578125 "/></g></g></g><g fill="#737373" fill-opacity="1"><g transform="translate(127.772693, 256.822424)"><g><path d="M 2.609375 -8.734375 L 2.609375 0 L 0.765625 0 L 0.765625 -8.734375 Z M 2.609375 -8.734375 "/></g></g></g><g fill="#737373" fill-opacity="1"><g transform="translate(133.98196, 256.822424)"><g><path d="M 6.546875 -5.90625 C 6.429688 -6.320312 6.21875 -6.644531 5.90625 -6.875 C 5.59375 -7.101562 5.195312 -7.21875 4.71875 -7.21875 C 4.050781 -7.21875 3.507812 -6.972656 3.09375 -6.484375 C 2.6875 -5.992188 2.484375 -5.289062 2.484375 -4.375 C 2.484375 -3.46875 2.6875 -2.765625 3.09375 -2.265625 C 3.5 -1.765625 4.046875 -1.515625 4.734375 -1.515625 C 5.347656 -1.515625 5.832031 -1.671875 6.1875 -1.984375 C 6.539062 -2.304688 6.722656 -2.738281 6.734375 -3.28125 L 4.859375 -3.28125 L 4.859375 -4.671875 L 8.515625 -4.671875 L 8.515625 -3.578125 C 8.515625 -2.804688 8.351562 -2.144531 8.03125 -1.59375 C 7.707031 -1.039062 7.257812 -0.613281 6.6875 -0.3125 C 6.125 -0.0195312 5.472656 0.125 4.734375 0.125 C 3.910156 0.125 3.1875 -0.0546875 2.5625 -0.421875 C 1.945312 -0.785156 1.46875 -1.300781 1.125 -1.96875 C 0.78125 -2.644531 0.609375 -3.441406 0.609375 -4.359375 C 0.609375 -5.304688 0.785156 -6.113281 1.140625 -6.78125 C 1.503906 -7.457031 1.992188 -7.972656 2.609375 -8.328125 C 3.234375 -8.679688 3.925781 -8.859375 4.6875 -8.859375 C 5.351562 -8.859375 5.953125 -8.734375 6.484375 -8.484375 C 7.015625 -8.234375 7.453125 -7.882812 7.796875 -7.4375 C 8.140625 -7 8.351562 -6.488281 8.4375 -5.90625 Z M 6.546875 -5.90625 "/></g></g></g><g fill="#737373" fill-opacity="1"><g transform="translate(145.960881, 256.822424)"><g><path d="M 2.609375 -8.734375 L 2.609375 0 L 0.765625 0 L 0.765625 -8.734375 Z M 2.609375 -8.734375 "/></g></g></g><g fill="#737373" fill-opacity="1"><g transform="translate(152.170149, 256.822424)"><g><path d="M 0.421875 -7.21875 L 0.421875 -8.734375 L 7.609375 -8.734375 L 7.609375 -7.21875 L 4.921875 -7.21875 L 4.921875 0 L 3.109375 0 L 3.109375 -7.21875 Z M 0.421875 -7.21875 "/></g></g></g><g fill="#737373" fill-opacity="1"><g transform="translate(163.039519, 256.822424)"><g><path d="M 2.265625 0 L 0.28125 0 L 3.296875 -8.734375 L 5.6875 -8.734375 L 8.703125 0 L 6.71875 0 L 6.0625 -2 L 2.921875 -2 Z M 3.390625 -3.4375 L 5.609375 -3.4375 L 4.53125 -6.734375 L 4.453125 -6.734375 Z M 3.390625 -3.4375 "/></g></g></g><g fill="#737373" fill-opacity="1"><g transform="translate(174.864807, 256.822424)"><g><path d="M 0.765625 0 L 0.765625 -8.734375 L 2.609375 -8.734375 L 2.609375 -1.515625 L 6.359375 -1.515625 L 6.359375 0 Z M 0.765625 0 "/></g></g></g><g fill="#737373" fill-opacity="1"><g transform="translate(184.522213, 256.822424)"><g/></g></g><g fill="#737373" fill-opacity="1"><g transform="translate(190.14683, 256.822424)"><g><path d="M 0.765625 0 L 0.765625 -8.734375 L 2.609375 -8.734375 L 2.609375 -1.515625 L 6.359375 -1.515625 L 6.359375 0 Z M 0.765625 0 "/></g></g></g><g fill="#737373" fill-opacity="1"><g transform="translate(199.804237, 256.822424)"><g><path d="M 2.609375 -8.734375 L 2.609375 0 L 0.765625 0 L 0.765625 -8.734375 Z M 2.609375 -8.734375 "/></g></g></g><g fill="#737373" fill-opacity="1"><g transform="translate(206.013505, 256.822424)"><g><path d="M 0.765625 0 L 0.765625 -8.734375 L 4.265625 -8.734375 C 5.222656 -8.734375 5.941406 -8.523438 6.421875 -8.109375 C 6.910156 -7.691406 7.15625 -7.15625 7.15625 -6.5 C 7.15625 -5.976562 7.003906 -5.5625 6.703125 -5.25 C 6.410156 -4.9375 6.035156 -4.726562 5.578125 -4.625 L 5.578125 -4.53125 C 5.910156 -4.519531 6.222656 -4.425781 6.515625 -4.25 C 6.804688 -4.082031 7.039062 -3.84375 7.21875 -3.53125 C 7.40625 -3.21875 7.5 -2.847656 7.5 -2.421875 C 7.5 -1.953125 7.382812 -1.535156 7.15625 -1.171875 C 6.925781 -0.804688 6.585938 -0.519531 6.140625 -0.3125 C 5.691406 -0.101562 5.144531 0 4.5 0 Z M 2.609375 -1.515625 L 4.109375 -1.515625 C 4.628906 -1.515625 5.003906 -1.613281 5.234375 -1.8125 C 5.472656 -2.007812 5.59375 -2.269531 5.59375 -2.59375 C 5.59375 -2.957031 5.460938 -3.253906 5.203125 -3.484375 C 4.953125 -3.710938 4.601562 -3.828125 4.15625 -3.828125 L 2.609375 -3.828125 Z M 2.609375 -5.078125 L 3.984375 -5.078125 C 4.359375 -5.078125 4.671875 -5.175781 4.921875 -5.375 C 5.171875 -5.570312 5.296875 -5.84375 5.296875 -6.1875 C 5.296875 -6.507812 5.179688 -6.765625 4.953125 -6.953125 C 4.734375 -7.148438 4.421875 -7.25 4.015625 -7.25 L 2.609375 -7.25 Z M 2.609375 -5.078125 "/></g></g></g><g fill="#737373" fill-opacity="1"><g transform="translate(216.793256, 256.822424)"><g><path d="M 0.765625 0 L 0.765625 -8.734375 L 4.203125 -8.734375 C 5.203125 -8.734375 5.972656 -8.472656 6.515625 -7.953125 C 7.066406 -7.441406 7.34375 -6.753906 7.34375 -5.890625 C 7.34375 -5.285156 7.207031 -4.769531 6.9375 -4.34375 C 6.675781 -3.925781 6.296875 -3.609375 5.796875 -3.390625 L 7.65625 0 L 5.609375 0 L 3.953125 -3.09375 L 2.609375 -3.09375 L 2.609375 0 Z M 2.609375 -4.578125 L 3.859375 -4.578125 C 4.910156 -4.578125 5.4375 -5.015625 5.4375 -5.890625 C 5.4375 -6.785156 4.910156 -7.234375 3.859375 -7.234375 L 2.609375 -7.234375 Z M 2.609375 -4.578125 "/></g></g></g><g fill="#737373" fill-opacity="1"><g transform="translate(227.517537, 256.822424)"><g><path d="M 2.265625 0 L 0.28125 0 L 3.296875 -8.734375 L 5.6875 -8.734375 L 8.703125 0 L 6.71875 0 L 6.0625 -2 L 2.921875 -2 Z M 3.390625 -3.4375 L 5.609375 -3.4375 L 4.53125 -6.734375 L 4.453125 -6.734375 Z M 3.390625 -3.4375 "/></g></g></g><g fill="#737373" fill-opacity="1"><g transform="translate(239.342824, 256.822424)"><g><path d="M 0.765625 0 L 0.765625 -8.734375 L 4.203125 -8.734375 C 5.203125 -8.734375 5.972656 -8.472656 6.515625 -7.953125 C 7.066406 -7.441406 7.34375 -6.753906 7.34375 -5.890625 C 7.34375 -5.285156 7.207031 -4.769531 6.9375 -4.34375 C 6.675781 -3.925781 6.296875 -3.609375 5.796875 -3.390625 L 7.65625 0 L 5.609375 0 L 3.953125 -3.09375 L 2.609375 -3.09375 L 2.609375 0 Z M 2.609375 -4.578125 L 3.859375 -4.578125 C 4.910156 -4.578125 5.4375 -5.015625 5.4375 -5.890625 C 5.4375 -6.785156 4.910156 -7.234375 3.859375 -7.234375 L 2.609375 -7.234375 Z M 2.609375 -4.578125 "/></g></g></g><g fill="#737373" fill-opacity="1"><g transform="translate(250.067105, 256.822424)"><g><path d="M 0.25 -8.734375 L 2.3125 -8.734375 L 4.3125 -4.96875 L 4.390625 -4.96875 L 6.390625 -8.734375 L 8.453125 -8.734375 L 5.265625 -3.09375 L 5.265625 0 L 3.4375 0 L 3.4375 -3.09375 Z M 0.25 -8.734375 "/></g></g></g></svg>